<svg xmlns="http://www.w3.org/2000/svg" viewBox="0 0 202.22 41.61"><title>AWfBLM_Logo</title><g id="Layer_2" data-name="Layer 2"><g id="Layer_1-2" data-name="Layer 1"><path d="M5.91,15.21l-1.2,3.9H0L6.77.42h4.7l6.75,18.69H13.51l-1.2-3.9Zm5.36-3.58L9.15,4.73H9.1L7,11.63Z"/><path d="M19.29.42H28.1c4.15,0,6.66,1.91,6.66,5.44A4.43,4.43,0,0,1,31,10.43v.05c4.68.81,3,8.05,4.06,8.37v.26H30.14c-.92-.79.78-6.51-3.22-6.51H24v6.51H19.29ZM24,8.76h3.18c1.89,0,2.88-.68,2.88-2.25s-1-2.25-2.88-2.25H24Z"/><path d="M41.17,4.26H35.73V.42H51.28V4.26H45.87V19.11h-4.7Z"/><path d="M67.74,13.62c0,3.58-2.72,5.91-7.4,5.91-4.86,0-8.52-2.41-8.52-6.57h4.7c0,2,1.73,2.72,3.82,2.72,1.75,0,2.69-.68,2.69-1.62,0-1.49-2-1.83-4.65-2.61-3.22-.94-6-2.33-6-5.78C52.34,1.59,55.53,0,59.55,0c4.37,0,7.79,2.3,7.92,6.09h-4.7c-.21-1.41-1.41-2.25-3.22-2.25-1.41,0-2.51.45-2.51,1.49s1.18,1.52,3.53,2.17C64.1,8.47,67.74,9.62,67.74,13.62Z"/><path d="M77.49.42l2.4,12.68h0L82.85.42h4.44l2.9,12.68h0L92.65.42h4.7L92.59,19.11h-4.7L85.09,7.45h0l-2.8,11.66h-4.7L72.78.42Z"/><path d="M97.31,9.75c0-5.62,3.32-9.75,9.25-9.75s9.25,4.13,9.25,9.75-3.37,9.78-9.25,9.78S97.31,15.4,97.31,9.75Zm13.8,0c0-3.24-1.15-5.91-4.55-5.91S102,6.51,102,9.75s1.13,5.93,4.55,5.93S111.11,13,111.11,9.75Z"/><path d="M117.63.42h8.81c4.16,0,6.67,1.91,6.67,5.44a4.44,4.44,0,0,1-3.79,4.57v.05c4.68.81,3,8.05,4.05,8.37v.26h-4.89c-.91-.79.79-6.51-3.21-6.51h-2.93v6.51h-4.71Zm4.71,8.34h3.19c1.88,0,2.87-.68,2.87-2.25s-1-2.25-2.87-2.25h-3.19Z"/><path d="M139.91.42V8L146.42.42h5.49L144.8,8.65l7.37,10.46h-5.49L141.8,12l-1.89,2.15v4.94h-4.7V.42Z"/><path d="M166.08,7.58v3.84h-8.15v3.84h9.61v3.85H153.22V.42h14.17V4.26h-9.46V7.58Z"/><path d="M169.68.42h8.8c4.16,0,6.67,1.91,6.67,5.44a4.43,4.43,0,0,1-3.79,4.57v.05c4.68.81,3,8.05,4,8.37v.26h-4.89c-.91-.79.79-6.51-3.21-6.51h-2.93v6.51h-4.7Zm4.7,8.34h3.19c1.88,0,2.87-.68,2.87-2.25s-1-2.25-2.87-2.25h-3.19Z"/><path d="M202.22,13.62c0,3.58-2.72,5.91-7.4,5.91-4.86,0-8.52-2.41-8.52-6.57H191c0,2,1.72,2.72,3.81,2.72,1.75,0,2.69-.68,2.69-1.62,0-1.49-2-1.83-4.65-2.61-3.21-.94-6-2.33-6-5.78C186.82,1.59,190,0,194,0c4.36,0,7.79,2.3,7.92,6.09h-4.71C197,4.68,195.84,3.84,194,3.84c-1.41,0-2.51.45-2.51,1.49s1.18,1.52,3.53,2.17C198.59,8.47,202.22,9.62,202.22,13.62Z"/><path d="M6.17,26.06l-.34,1.81H8.36L8,29.69H5.46L3.21,41.2H1.12L3.37,29.69H1.52l.36-1.82H3.74l.42-2.17c.52-2.72,1.93-3.35,3.66-3.35a7.1,7.1,0,0,1,1.51.18L9.1,24.34C7.34,24.21,6.46,24.54,6.17,26.06Z"/><path d="M7.52,34.69c.81-4.24,3.92-7.19,8.05-7.19s5.83,2.8,5.05,6.87c-.81,4.24-3.92,7.19-8,7.19S6.74,38.76,7.52,34.69Zm11,0c.66-2.93-.28-5.36-3.32-5.36s-4.83,2.27-5.49,5C9,37.3,10,39.73,13,39.73S17.82,37.46,18.47,34.69Z"/><path d="M30.92,27.58l-.34,2.09a5.24,5.24,0,0,0-5.82,4.49l-1.39,7H21.28l2.61-13.33H26l-.54,2.63.07-.07c1-1.76,2.3-2.93,4.16-2.93A8.15,8.15,0,0,1,30.92,27.58Z"/><path d="M53.62,31.18v.06a4.12,4.12,0,0,1,3.63,4.44c0,4-2.54,5.52-6.41,5.52H41.51V22.51h9.07c3.9,0,5.94,1.51,5.94,4.7A3.93,3.93,0,0,1,53.62,31.18Zm-4.16-1.12c1.31,0,2.35-.31,2.35-1.86s-1-1.85-2.35-1.85H46.22v3.71Zm-3.24,7.29h3.37c2,0,2.95-.47,2.95-2.22s-1-2.19-2.95-2.19H46.22Z"/><path d="M63.49,22.51V37.35H71.8V41.2h-13V22.51Z"/><path d="M78.68,37.3l-1.2,3.9h-4.7l6.77-18.69h4.7L91,41.2H86.29l-1.2-3.9ZM84,33.72l-2.11-6.9h-.06l-2.11,6.9Z"/><path d="M99.39,25.93c-3.11,0-4.15,2.4-4.15,5.91s1,5.93,4.15,5.93c2.51,0,3.45-1.49,3.77-3.58h4.7c-.41,4.39-3.13,7.42-8.26,7.42-5.9,0-9.07-4.13-9.07-9.77s3.17-9.75,9.07-9.75c5.1,0,7.82,3,8.26,7.37h-4.7C102.82,27.42,101.88,25.93,99.39,25.93Z"/><path d="M114.3,22.51v7.58l6.51-7.58h5.49l-7.11,8.23,7.37,10.46h-5.49l-4.89-7.09-1.88,2.14v5h-4.71V22.51Z"/><path d="M137.37,22.51V37.35h8.31V41.2h-13V22.51Z"/><path d="M151.68,22.51V41.2H147V22.51Z"/><path d="M157.67,22.51,161.2,35.6h.05l3.56-13.09h5L163.71,41.2h-5l-6.06-18.69Z"/><path d="M183.68,29.67v3.84h-8.15v3.84h9.62V41.2H170.82V22.51H185v3.84h-9.46v3.32Z"/><path d="M202.09,35.71c0,3.58-2.72,5.9-7.4,5.9-4.86,0-8.52-2.4-8.52-6.56h4.7c0,2,1.73,2.72,3.82,2.72,1.75,0,2.69-.68,2.69-1.62,0-1.49-2-1.83-4.65-2.61-3.22-.94-6-2.33-6-5.78,0-4.08,3.19-5.67,7.21-5.67,4.37,0,7.79,2.3,7.92,6.09h-4.7c-.21-1.41-1.41-2.25-3.22-2.25-1.41,0-2.5.45-2.5,1.49s1.17,1.52,3.52,2.17C198.45,30.56,202.09,31.71,202.09,35.71Z"/></g></g></svg>